<?xml version="1.0" standalone="no"?>
<!DOCTYPE svg PUBLIC "-//W3C//DTD SVG 20010904//EN"
 "http://www.w3.org/TR/2001/REC-SVG-20010904/DTD/svg10.dtd">
<svg version="1.0" xmlns="http://www.w3.org/2000/svg"
 width="852.000000pt" height="480.000000pt" viewBox="0 0 852.000000 480.000000"
 preserveAspectRatio="xMidYMid meet">

<g transform="translate(0.000000,480.000000) scale(0.100000,-0.100000)"
fill="#000000" stroke="none">
<path d="M785 3109 c-26 -16 -34 -29 -28 -46 3 -7 0 -19 -6 -27 -6 -7 -8 -21
-5 -30 4 -10 -1 -25 -11 -37 -23 -24 -22 -128 0 -145 10 -8 11 -14 4 -21 -10
-10 -22 -99 -21 -143 3 -84 7 -110 14 -110 5 0 2 -10 -6 -22 -26 -37 -20 -58
22 -74 74 -30 80 -35 34 -30 -49 5 -72 -11 -72 -50 0 -19 8 -28 30 -35 39 -14
38 -34 -1 -48 -25 -9 -29 -14 -20 -24 6 -8 12 -27 14 -43 2 -16 9 -42 16 -59
21 -48 30 -83 23 -90 -13 -12 -11 -44 3 -55 14 -11 14 -15 -1 -31 -43 -48 66
-109 302 -168 234 -59 721 -109 1224 -126 349 -11 1642 -16 1635 -5 -4 6 -61
11 -143 12 l-137 2 125 7 c69 4 631 5 1250 2 1393 -5 1382 -5 1396 13 7 9 32
14 70 15 32 1 51 3 41 6 -12 3 -17 13 -15 30 3 22 -2 28 -29 35 -62 16 -34 28
70 29 73 1 92 4 67 9 -27 6 -17 8 40 7 75 0 116 5 178 25 36 11 34 28 -4 28
-36 0 -29 18 9 22 28 3 25 5 -26 17 -32 7 -56 15 -53 18 3 3 -5 11 -17 18 -23
12 -109 20 -322 31 -93 5 -117 10 -154 32 -46 26 -77 30 -384 48 -54 3 -97 7
-95 9 2 2 59 8 128 13 115 9 305 6 830 -12 85 -3 146 -3 135 0 -11 4 -24 10
-30 14 -5 4 -89 13 -185 20 -96 7 -178 15 -183 19 -4 4 97 7 225 6 l233 -1
-225 22 c-226 22 -568 43 -1040 65 -140 6 -257 13 -260 16 -13 14 784 -19
1150 -47 394 -30 408 -31 414 -21 3 5 -31 12 -77 16 -234 18 -511 46 -515 50
-7 7 135 5 266 -4 57 -3 109 -3 115 1 7 4 -7 8 -30 8 -81 0 -195 22 -214 41
-18 18 -18 19 9 25 15 3 32 7 37 8 6 2 -35 6 -90 10 -236 16 -259 18 -242 28
15 8 73 11 347 18 71 2 88 4 65 11 -17 5 60 6 180 3 116 -3 212 -6 215 -7 3
-1 6 3 8 8 1 6 -14 13 -35 16 l-38 6 43 2 c39 1 57 17 30 26 -7 2 -87 9 -178
15 -321 22 -446 31 -530 40 l-85 9 115 -4 c63 -2 229 -9 368 -16 190 -9 259
-9 278 0 14 6 39 11 57 12 31 1 31 1 7 9 -14 4 -47 9 -75 10 -27 1 -61 5 -75
9 -24 7 -24 8 9 15 19 5 53 8 75 8 l41 -1 -34 15 c-18 8 -69 16 -113 18 -86 5
-119 16 -47 16 24 0 62 3 83 7 28 4 37 3 32 -5 -4 -7 -2 -12 3 -12 6 0 11 5
11 10 0 6 7 10 15 10 18 0 18 5 4 32 -9 16 -7 24 12 44 l22 24 -25 0 c-15 0
-28 5 -30 10 -3 10 -131 31 -274 45 -39 4 -77 11 -85 16 -9 6 12 7 59 3 64 -6
72 -5 66 10 -3 9 -12 16 -19 16 -7 0 -72 7 -146 15 -74 8 -233 22 -354 30
-121 8 -265 20 -320 25 -55 6 -221 15 -370 20 -148 6 -389 15 -535 20 -249 10
-759 26 -1575 49 -192 6 -588 15 -880 21 -291 6 -613 15 -715 20 -330 17 -763
50 -865 66 -149 24 -188 26 -210 13z m4443 -836 c-10 -2 -28 -2 -40 0 -13 2
-5 4 17 4 22 1 32 -1 23 -4z m550 -170 c-10 -2 -28 -2 -40 0 -13 2 -5 4 17 4
22 1 32 -1 23 -4z"/>
<path d="M6638 2333 c6 -2 18 -2 25 0 6 3 1 5 -13 5 -14 0 -19 -2 -12 -5z"/>
<path d="M6813 2253 c9 -2 25 -2 35 0 9 3 1 5 -18 5 -19 0 -27 -2 -17 -5z"/>
<path d="M3955 1690 c-4 -6 7 -10 27 -10 25 0 29 3 18 10 -19 13 -37 13 -45 0z"/>
<path d="M4558 1683 c6 -2 18 -2 25 0 6 3 1 5 -13 5 -14 0 -19 -2 -12 -5z"/>
</g>
</svg>
